<?xml version="1.0" encoding="utf-8"?>
<!-- Generator: Adobe Illustrator 24.1.3, SVG Export Plug-In . SVG Version: 6.00 Build 0)  -->
<svg version="1.1" xmlns="http://www.w3.org/2000/svg" xmlns:xlink="http://www.w3.org/1999/xlink" x="0px" y="0px"
	 viewBox="0 0 434.77 434.77" style="enable-background:new 0 0 434.77 434.77;" xml:space="preserve">
<style type="text/css">
	.st0{fill:#C8D6C8;}
	.st1{fill:#020202;}
	.st2{fill:#C3D82E;}
	.st3{fill:#FFFFFF;}
</style>
<g id="Layer_1">
	<rect x="0.92" y="-0.92" class="st0" width="434.77" height="434.77"/>
	<g>
		<rect x="62.96" y="134.39" class="st1" width="305.34" height="137.54"/>
		<g>
			
				<rect x="198.13" y="239.2" transform="matrix(6.123234e-17 -1 1 6.123234e-17 -53.6034 458.1164)" class="st2" width="8.25" height="33.32"/>
			<path class="st3" d="M178.39,253.81v4.1c0,1.15-0.93,2.08-2.08,2.08h-30.31c-1.15,0-2.08-0.93-2.08-2.08v-4.1
				c0-1.15,0.93-2.08,2.08-2.08h30.31C177.46,251.73,178.39,252.66,178.39,253.81z"/>
			<rect x="72.36" y="146.28" class="st3" width="8.25" height="113.7"/>
			<rect x="324.97" y="146.28" class="st2" width="8.25" height="114.05"/>
			<rect x="185.6" y="146.28" class="st2" width="8.25" height="55.25"/>
			<rect x="185.6" y="146.28" class="st2" width="21.7" height="8.25"/>
			
				<rect x="241.23" y="119.85" transform="matrix(6.123234e-17 -1 1 6.123234e-17 94.9424 395.7638)" class="st2" width="8.25" height="61.13"/>
			
				<rect x="198.13" y="186.06" transform="matrix(6.123234e-17 -1 1 6.123234e-17 -0.4585 404.9715)" class="st2" width="8.25" height="33.32"/>
			<rect x="210.66" y="198.78" class="st2" width="8.25" height="61.21"/>
			<rect x="226.12" y="146.28" class="st2" width="8.25" height="113.7"/>
			<path class="st3" d="M150.1,259.99h-4.1c-1.15,0-2.08-0.93-2.08-2.08v-97.32c0-1.15,0.93-2.08,2.08-2.08h4.1
				c1.15,0,2.08,0.93,2.08,2.08v97.32C152.18,259.06,151.25,259.99,150.1,259.99z"/>
			<path class="st3" d="M178.39,160.59v4.1c0,1.15-0.93,2.08-2.08,2.08h-30.31c-1.15,0-2.08-0.93-2.08-2.08v-4.1
				c0-1.15,0.93-2.08,2.08-2.08h30.31C177.46,158.51,178.39,159.44,178.39,160.59z"/>
			<path class="st3" d="M176.31,259.99h-4.1c-1.15,0-2.08-0.93-2.08-2.08v-97.32c0-1.15,0.93-2.08,2.08-2.08h4.1
				c1.15,0,2.08,0.93,2.08,2.08v97.32C178.39,259.06,177.46,259.99,176.31,259.99z"/>
			<path class="st2" d="M249.59,259.99h-8.25v-97.32c0-2.29,1.86-4.15,4.15-4.15h4.1V259.99z"/>
			
				<rect x="254.56" y="185.83" transform="matrix(6.123234e-17 -1 1 6.123234e-17 55.5136 461.8606)" class="st2" width="8.25" height="34.69"/>
			<path class="st2" d="M275.92,162.66v4.1h-34.46v-4.1c0-2.29,1.86-4.15,4.15-4.15h26.15
				C274.06,158.51,275.92,160.37,275.92,162.66z"/>
			<path class="st2" d="M276.03,259.99h-8.25V158.51h4.1c2.29,0,4.15,1.86,4.15,4.15V259.99z"/>
			<rect x="283.34" y="158.4" class="st2" width="8.25" height="101.9"/>
			
				<rect x="296.81" y="186.58" transform="matrix(6.123234e-17 -1 1 6.123234e-17 97.8434 504.0376)" class="st2" width="8.25" height="33.04"/>
			
				<rect x="296.68" y="133.18" transform="matrix(6.123234e-17 -1 1 6.123234e-17 150.3934 451.2148)" class="st2" width="8.25" height="34.46"/>
			<rect x="309.78" y="146.28" class="st2" width="8.25" height="60.94"/>
			
				<rect x="145.84" y="121.99" transform="matrix(-1.836970e-16 1 -1 -1.836970e-16 300.3766 0.4448)" class="st3" width="8.25" height="56.85"/>
			
				<rect x="126.06" y="173.25" transform="matrix(-1.836970e-16 1 -1 -1.836970e-16 312.0799 51.7053)" class="st3" width="8.25" height="17.29"/>
			<polygon class="st3" points="129.79,241.88 121.54,213.16 121.54,146.28 129.79,146.28 			"/>
			<rect x="88.4" y="146.28" class="st3" width="8.25" height="113.7"/>
			<polygon class="st3" points="130.02,259.64 121.42,259.64 88.63,145.94 96.88,145.94 			"/>
			<polygon class="st2" points="318.46,260.39 309.86,260.39 291.7,199.58 300.64,199.81 			"/>
			<polygon class="st2" points="358.92,260.37 349.98,260.37 333.07,202.74 342.01,202.78 			"/>
			<polygon class="st2" points="333.03,202.91 341.97,202.91 358.92,146.3 349.97,146.35 			"/>
		</g>
	</g>
</g>
<g id="Layer_2">
</g>
</svg>
